{
  "source": "C:\\Users\\Peter\\Desktop\\stuff\\MIUN\\quantitative_research\\video_compression\\videos\\BVI-HD\\BVI-HD_CDVL_videos\\ORIG\\BridgeRiver_1920x1080_30fps.mp4",
  "output": "C:\\Users\\Peter\\Desktop\\stuff\\MIUN\\quantitative_research\\video_compression\\compressed_videos\\BVI-HD\\av1\\4\\BridgeRiver_1920x1080_30fps_av1.mkv",
  "codec": "av1",
  "ok": "Input #0, mov,mp4,m4a,3gp,3g2,mj2, from 'C:\\Users\\Peter\\Desktop\\stuff\\MIUN\\quantitative_research\\video_compression\\videos\\BVI-HD\\BVI-HD_CDVL_videos\\ORIG\\BridgeRiver_1920x1080_30fps.mp4':\n  Metadata:\n    major_brand     : isom\n    minor_version   : 512\n    compatible_brands: isomiso2avc1mp41\n    encoder         : Lavf54.28.101\n  Duration: 00:00:05.00, start: 0.000000, bitrate: 274913 kb/s\n  Stream #0:0[0x1](und): Video: h264 (High 4:4:4 Predictive) (avc1 / 0x31637661), yuv420p(progressive), 1920x1080, 274910 kb/s, 30 fps, 30 tbr, 30 tbn (default)\n    Metadata:\n      handler_name    : VideoHandler\n      vendor_id       : [0][0][0][0]\n[out#0/matroska @ 000001f5b0968fc0] Codec AVOption b:a (set bitrate (in bits/s)) has not been used for any stream. The most likely reason is either wrong type (e.g. a video option with no video streams) or that it is a private option of some decoder which was not actually used for any stream.\nStream mapping:\n  Stream #0:0 -> #0:0 (h264 (native) -> av1 (libsvtav1))\nPress [q] to stop, [?] for help\nSvt[info]: -------------------------------------------\nSvt[info]: SVT [version]:\tSVT-AV1 Encoder Lib v3.1.0-19-g6ecfe8ec\nSvt[info]: SVT [build]  :\tGCC 15.2.0\t 64 bit\nSvt[info]: LIB Build date: Aug 17 2025 11:37:13\nSvt[info]: -------------------------------------------\nSvt[info]: Level of Parallelism: 5\nSvt[info]: Number of PPCS 93\nSvt[info]: [asm level on system : up to avx2]\nSvt[info]: [asm level selected : up to avx2]\nSvt[info]: -------------------------------------------\nSvt[info]: SVT [config]: main profile\ttier (auto)\tlevel (auto)\nSvt[info]: SVT [config]: width / height / fps numerator / fps denominator \t\t: 1920 / 1080 / 30 / 1\nSvt[info]: SVT [config]: bit-depth / color format \t\t\t\t\t: 8 / YUV420\nSvt[info]: SVT [config]: preset / tune / pred struct \t\t\t\t\t: 4 / PSNR / random access\nSvt[info]: SVT [config]: gop size / mini-gop size / key-frame type \t\t\t: 161 / 16 / key frame\nSvt[info]: SVT [config]: BRC mode / target bitrate (kbps)\t\t\t\t: VBR / 4000 \nSvt[info]: SVT [config]: AQ mode / Variance Boost \t\t\t\t\t: 2 / 0\nSvt[info]: SVT [config]: sharpness / luminance-based QP bias \t\t\t\t: 0 / 0\nSvt[info]: SVT [config]: QP scale compress strength \t\t\t\t\t: 0\nSvt[info]: -------------------------------------------\nOutput #0, matroska, to 'C:\\Users\\Peter\\Desktop\\stuff\\MIUN\\quantitative_research\\video_compression\\compressed_videos\\BVI-HD\\av1\\4\\BridgeRiver_1920x1080_30fps_av1.mkv':\n  Metadata:\n    major_brand     : isom\n    minor_version   : 512\n    compatible_brands: isomiso2avc1mp41\n    encoder         : Lavf62.3.100\n  Stream #0:0(und): Video: av1 (AV01 / 0x31305641), yuv420p(tv, progressive), 1920x1080, q=2-31, 4000 kb/s, 30 fps, 1k tbn (default)\n    Metadata:\n      encoder         : Lavc62.11.100 libsvtav1\n      handler_name    : VideoHandler\n      vendor_id       : [0][0][0][0]\n    Side data:\n      cpb: bitrate max/min/avg: 0/0/4000000 buffer size: 4000000 vbv_delay: N/A\nframe=    0 fps=0.0 q=0.0 size=       0KiB time=N/A bitrate=N/A speed=N/A elapsed=0:00:01.03    \nframe=    0 fps=0.0 q=0.0 size=       0KiB time=N/A bitrate=N/A speed=N/A elapsed=0:00:01.55    \nframe=    0 fps=0.0 q=0.0 size=       0KiB time=N/A bitrate=N/A speed=N/A elapsed=0:00:02.09    \nframe=    0 fps=0.0 q=0.0 size=       0KiB time=N/A bitrate=N/A speed=N/A elapsed=0:00:02.62    \nframe=    0 fps=0.0 q=0.0 size=       0KiB time=N/A bitrate=N/A speed=N/A elapsed=0:00:03.17    \nframe=    0 fps=0.0 q=0.0 size=       0KiB time=N/A bitrate=N/A speed=N/A elapsed=0:00:03.70    \nframe=    1 fps=0.2 q=18.0 size=       1KiB time=00:00:00.00 bitrate=N/A speed=   0x elapsed=0:00:04.21    \nframe=    1 fps=0.2 q=18.0 size=       1KiB time=00:00:00.00 bitrate=N/A speed=   0x elapsed=0:00:04.73    \nframe=    1 fps=0.2 q=18.0 size=       1KiB time=00:00:00.00 bitrate=N/A speed=   0x elapsed=0:00:05.24    \nframe=    5 fps=0.9 q=44.0 size=       1KiB time=00:00:00.13 bitrate=  42.8kbits/s speed=0.0229x elapsed=0:00:05.82    \nframe=    8 fps=1.3 q=47.0 size=       1KiB time=00:00:00.23 bitrate=  24.4kbits/s speed=0.0365x elapsed=0:00:06.38    \nframe=   10 fps=1.4 q=47.0 size=       1KiB time=00:00:00.30 bitrate=  19.0kbits/s speed=0.043x elapsed=0:00:06.96    \nframe=   12 fps=1.6 q=47.0 size=       1KiB time=00:00:00.33 bitrate=  17.1kbits/s speed=0.0438x elapsed=0:00:07.61    \nframe=   16 fps=1.9 q=47.0 size=       1KiB time=00:00:00.46 bitrate=  12.2kbits/s speed=0.0568x elapsed=0:00:08.21    \nframe=   18 fps=2.0 q=47.0 size=       1KiB time=00:00:00.56 bitrate=  10.1kbits/s speed=0.0642x elapsed=0:00:08.82    \nframe=   20 fps=2.1 q=47.0 size=       1KiB time=00:00:00.63 bitrate=   9.0kbits/s speed=0.0673x elapsed=0:00:09.41    \nframe=   23 fps=2.3 q=43.0 size=       1KiB time=00:00:00.70 bitrate=   8.1kbits/s speed=0.0701x elapsed=0:00:09.97    \nframe=   26 fps=2.5 q=47.0 size=       1KiB time=00:00:00.83 bitrate=   6.8kbits/s speed=0.0786x elapsed=0:00:10.60    \nframe=   28 fps=2.5 q=47.0 size=       1KiB time=00:00:00.90 bitrate=   6.3kbits/s speed=0.0803x elapsed=0:00:11.21    \nframe=   33 fps=2.8 q=34.0 size=       1KiB time=00:00:01.06 bitrate=   5.3kbits/s speed=0.0908x elapsed=0:00:11.74    \nframe=   37 fps=3.0 q=44.0 size=       1KiB time=00:00:01.20 bitrate=   4.8kbits/s speed=0.0977x elapsed=0:00:12.28    \nframe=   39 fps=3.0 q=42.0 size=       1KiB time=00:00:01.26 bitrate=   4.5kbits/s speed=0.0989x elapsed=0:00:12.81    \nframe=   43 fps=3.2 q=44.0 size=       1KiB time=00:00:01.40 bitrate=   4.1kbits/s speed=0.105x elapsed=0:00:13.37    \nframe=   47 fps=3.4 q=44.0 size=       1KiB time=00:00:01.53 bitrate=   3.7kbits/s speed=0.11x elapsed=0:00:13.90    \nframe=   52 fps=3.6 q=47.0 size=       1KiB time=00:00:01.70 bitrate=   3.4kbits/s speed=0.117x elapsed=0:00:14.48    \nframe=   57 fps=3.8 q=41.0 size=       1KiB time=00:00:01.86 bitrate=   3.1kbits/s speed=0.124x elapsed=0:00:15.00    \nframe=   61 fps=3.9 q=41.0 size=       1KiB time=00:00:02.00 bitrate=   2.9kbits/s speed=0.129x elapsed=0:00:15.52    \nframe=   67 fps=4.2 q=47.0 size=       1KiB time=00:00:02.20 bitrate=   2.6kbits/s speed=0.137x elapsed=0:00:16.05    \nframe=   73 fps=4.4 q=41.0 size=       1KiB time=00:00:02.40 bitrate=   2.4kbits/s speed=0.145x elapsed=0:00:16.55    \nframe=   75 fps=4.4 q=47.0 size=       1KiB time=00:00:02.46 bitrate=   2.3kbits/s speed=0.144x elapsed=0:00:17.07    \nframe=   81 fps=4.6 q=34.0 size=       1KiB time=00:00:02.66 bitrate=   2.1kbits/s speed=0.151x elapsed=0:00:17.61    \nframe=   85 fps=4.7 q=48.0 size=       1KiB time=00:00:02.80 bitrate=   2.0kbits/s speed=0.154x elapsed=0:00:18.12    \nframe=   89 fps=4.8 q=43.0 size=       1KiB time=00:00:02.93 bitrate=   1.9kbits/s speed=0.157x elapsed=0:00:18.65    \nframe=   93 fps=4.8 q=47.0 size=       1KiB time=00:00:03.06 bitrate=   1.9kbits/s speed=0.16x elapsed=0:00:19.18    \nframe=   95 fps=4.8 q=50.0 size=       1KiB time=00:00:03.13 bitrate=   1.8kbits/s speed=0.159x elapsed=0:00:19.74    \nframe=  101 fps=5.0 q=50.0 size=       1KiB time=00:00:03.33 bitrate=   1.7kbits/s speed=0.165x elapsed=0:00:20.26    \nframe=  105 fps=5.1 q=46.0 size=       1KiB time=00:00:03.46 bitrate=   1.6kbits/s speed=0.167x elapsed=0:00:20.78    \nframe=  107 fps=5.0 q=51.0 size=       1KiB time=00:00:03.53 bitrate=   1.6kbits/s speed=0.166x elapsed=0:00:21.31    \nframe=  111 fps=5.1 q=51.0 size=       1KiB time=00:00:03.66 bitrate=   1.6kbits/s speed=0.168x elapsed=0:00:21.84    \nframe=  115 fps=5.1 q=52.0 size=       1KiB time=00:00:03.80 bitrate=   1.5kbits/s speed=0.17x elapsed=0:00:22.37    \nframe=  119 fps=5.2 q=51.0 size=       1KiB time=00:00:03.93 bitrate=   1.5kbits/s speed=0.172x elapsed=0:00:22.90    \nframe=  121 fps=5.2 q=47.0 size=       1KiB time=00:00:04.00 bitrate=   1.4kbits/s speed=0.171x elapsed=0:00:23.42    \nframe=  125 fps=5.2 q=51.0 size=       1KiB time=00:00:04.13 bitrate=   1.4kbits/s speed=0.172x elapsed=0:00:23.97    \nframe=  131 fps=5.3 q=55.0 size=       1KiB time=00:00:04.33 bitrate=   1.3kbits/s speed=0.177x elapsed=0:00:24.49    \nframe=  135 fps=5.4 q=55.0 size=       1KiB time=00:00:04.46 bitrate=   1.3kbits/s speed=0.178x elapsed=0:00:25.02    \nframe=  137 fps=5.4 q=51.0 size=       1KiB time=00:00:04.53 bitrate=   1.3kbits/s speed=0.177x elapsed=0:00:25.57    \nframe=  143 fps=5.5 q=55.0 size=       1KiB time=00:00:04.73 bitrate=   1.2kbits/s speed=0.181x elapsed=0:00:26.09    \n[out#0/matroska @ 000001f5b0968fc0] video:2903KiB audio:0KiB subtitle:0KiB other streams:0KiB global headers:0KiB muxing overhead: 0.049991%\nframe=  150 fps=5.7 q=55.0 Lsize=    2904KiB time=00:00:04.96 bitrate=4790.4kbits/s speed=0.19x elapsed=0:00:26.20    \n",
  "seconds": 26.805936336517334,
  "probe_out": {}
}